<svg xmlns="http://www.w3.org/2000/svg" xmlns:xlink="http://www.w3.org/1999/xlink" viewBox="0 0 512 512"><defs><style>.cls-1{fill:#131424;}.cls-2{fill:url(#linear-gradient);}</style><linearGradient id="linear-gradient" x1="314.39" y1="310.56" x2="149.05" y2="215.11" gradientUnits="userSpaceOnUse"><stop offset="0" stop-color="#80c242"/><stop offset="1" stop-color="#1db14b"/></linearGradient></defs><g id="Layer_2" data-name="Layer 2"><g id="Layer_4" data-name="Layer 4"><rect class="cls-1" width="512" height="512"/><path class="cls-2" d="M199.52,139.91l144.29,58.81a7.06,7.06,0,0,1,4.39,6.54V250.1a7.06,7.06,0,0,1-4.67,6.65L199.24,308.56a7,7,0,0,1-9.44-6.64V270.31a7,7,0,0,1,4.39-6.53l94.15-38.38-93.87-33.71a7,7,0,0,1-4.67-6.64V146.44A7.05,7.05,0,0,1,199.52,139.91ZM238.59,364.5V328.82a6.12,6.12,0,0,0-6.12-6.12H196.79a6.12,6.12,0,0,0-6.12,6.12V364.5a6.12,6.12,0,0,0,6.12,6.12h35.68A6.12,6.12,0,0,0,238.59,364.5Z"/></g></g></svg>
